<svg xmlns="http://www.w3.org/2000/svg" width="217" height="33" viewBox="0 0 217 33"><path fill="#2F2725" fill-rule="evenodd" d="M32.08 7.676h-6.574l.76-6.954c.04-.38-.263-.722-.643-.722h-.912c-.38 0-.72.342-.762.722l-.76 6.954H9.812l.76-6.954c.04-.38-.23-.684-.61-.684H9.05c-.38 0-.717.304-.758.684l-.76 6.954H.996c-.342 0-.675.266-.712.608l-.096.874c-.037.342.238.608.58.608h6.536l-1.03 9.424c-.042.38.23.684.61.684h.91c.38 0 .718-.304.76-.684l1.03-9.424H22.96l-.49 4.484c-.81 7.41-3.984 12.464-12.468 16.036-.36.152-.52.57-.324.874l.525.76c.23.342.672.456 1.073.266 8.876-4.028 12.602-9.614 13.532-18.126l.47-4.294h6.574c.342 0 .675-.266.712-.608l.096-.874c.037-.342-.238-.608-.58-.608zm30.174-6.574l-.66-.57c-.28-.228-.74-.19-1 .114-5.685 6.118-18.02 14.326-27.083 17.632-.353.114-.555.57-.398.874l.37.798c.19.342.63.494 1.025.342 4.367-1.71 9.336-4.408 14.034-7.41l-2.05 18.772c-.042.38.263.722.643.722h.95c.38 0 .76-.342.8-.722l2.24-20.482c4.393-3.002 8.35-6.194 11.137-9.082.26-.304.273-.76-.006-.988zm24.134 18.886c-4.553-3.192-11.13-6.992-16.04-9.348L71.43.722C71.474.342 71.17 0 70.79 0h-.95c-.38 0-.72.342-.763.722l-3.38 30.932c-.04.38.226.722.606.722h.95c.38 0 .76-.342.802-.722l2.022-18.506c4.69 2.28 10.688 5.814 14.625 8.74.316.228.742.152 1.04-.152l.692-.76c.262-.304.273-.76-.044-.988zm34.33-14.82l-.61-.342c-.21-.152-.47-.228-.735-.228H106.3c.734-1.14 1.42-2.204 1.992-3.268.19-.342.045-.76-.284-.874l-.84-.304c-.368-.114-.803.038-.997.418-2.872 5.434-8.408 12.274-13.767 16.112-.29.228-.374.646-.133.874l.66.57c.274.266.692.266 1.025 0 3.808-2.85 7.81-7.144 10.902-11.438h13.528c-1.394 4.408-3.645 8.664-6.72 12.464-2.292-1.976-5.822-4.446-8.6-6.156-.32-.19-.747-.114-1.008.19l-.645.684c-.257.266-.188.684.1.836 2.713 1.596 6.306 4.18 8.548 6.27-3.624 3.952-8.127 7.258-13.413 9.386-.36.152-.477.532-.282.836l.525.76c.23.342.706.494 1.107.304 11.113-4.674 19.18-14.516 23.09-25.954.163-.456.023-.912-.37-1.14zm31.357-4.066l-.66-.57c-.28-.228-.74-.19-1 .114-5.685 6.118-18.02 14.326-27.083 17.632-.354.114-.556.57-.4.874l.37.798c.19.342.63.494 1.026.342 4.367-1.71 9.336-4.408 14.034-7.41l-2.05 18.772c-.043.38.262.722.642.722h.95c.38 0 .76-.342.8-.722l2.24-20.482c4.393-3.002 8.35-6.194 11.137-9.082.262-.304.274-.76-.005-.988zm25.634 18.886c-4.554-3.192-11.13-6.992-16.04-9.348L162.75.722c.042-.38-.263-.722-.643-.722h-.95c-.38 0-.722.342-.764.722l-3.38 30.932c-.04.38.226.722.606.722h.95c.38 0 .76-.342.8-.722l2.023-18.506c4.69 2.28 10.69 5.814 14.625 8.74.317.228.743.152 1.042-.152l.692-.76c.26-.304.273-.76-.045-.988zm16.82-17.594h-.91c-.38 0-.756.304-.798.684l-1.228 11.248c-.63 5.776-2.513 11.172-9.84 15.618-.323.19-.407.608-.17.874l.647.684c.272.304.728.304 1.095.076 7.435-4.75 9.88-10.792 10.578-17.176l1.237-11.324c.042-.38-.23-.684-.61-.684zm22.223 16.074l-.365-.836c-.118-.304-.536-.304-.755-.038-3.1 3.686-8.7 7.98-12.4 9.842l2.724-24.928c.04-.38-.268-.684-.648-.684h-.95c-.38 0-.718.304-.76.684l-2.885 26.41c-.045.418.103.798.458 1.026l.605.38c.355.228.773.228 1.178 0 4.694-2.622 10.213-6.878 13.55-10.64.304-.342.396-.836.247-1.216z"/></svg>